<svg width="18" height="23" viewBox="0 0 18 23" fill="none" xmlns="http://www.w3.org/2000/svg">
<path d="M16.9467 9.15292C16.9839 13.3818 11.5521 18.9429 9.64876 20.7607C9.28141 21.1116 8.71945 21.1102 8.35353 20.7578C6.4481 18.9231 0.988307 13.3016 1.04743 9.17824C0.915331 4.57145 4.56103 1 8.99066 1C13.4203 1 17.0949 4.61095 16.9467 9.15292Z" stroke="#0E2249" stroke-width="2"/>
<path d="M10.9938 9C10.9938 10.1046 10.0984 11 8.9938 11C7.88923 11 6.9938 10.1046 6.9938 9C6.9938 7.89543 7.88923 7 8.9938 7C10.0984 7 10.9938 7.89543 10.9938 9Z" stroke="#0E2249" stroke-width="2"/>
</svg>
